<svg width="90" height="88" viewBox="0 0 90 88" fill="none" xmlns="http://www.w3.org/2000/svg">
<g clip-path="url(#clip0_1509_8847)">
<path d="M31.9819 47.0894C32.2069 47.8993 34.5129 56.2003 35.6378 60.2496" stroke="url(#paint0_linear_1509_8847)" stroke-width="8.69973" stroke-linecap="round"/>
<path d="M31.9819 47.0894C32.2069 47.8993 34.5129 56.2003 35.6378 60.2496" stroke="#606060" stroke-width="8.69973" stroke-linecap="round"/>
<g filter="url(#filter0_n_1509_8847)">
<circle cx="24.7229" cy="24.722" r="20.7607" transform="rotate(-37.6347 24.7229 24.722)" stroke="url(#paint1_linear_1509_8847)" stroke-width="5.14075"/>
<circle cx="24.7229" cy="24.722" r="20.7607" transform="rotate(-37.6347 24.7229 24.722)" stroke="#606060" stroke-width="5.14075"/>
</g>
<g filter="url(#filter1_d_1509_8847)">
<path d="M86.4118 24.8283C86.9843 14.6939 82.1088 9.57901 78.9137 7.87092C78.4153 7.60448 77.8215 7.84529 77.5825 8.35738C72.4416 19.371 63.9359 40.4663 68.0219 43.4598C72.7659 46.9353 82.608 44.2171 87.1985 41.0057C87.8385 40.5579 87.8192 39.3906 87.5105 38.6731C86.7041 36.7992 85.9674 32.6971 86.4118 24.8283Z" fill="#956245"/>
<path d="M36.8135 83.6698C40.0479 83.309 47.7145 83.45 51.1435 83.5655C50.1665 79.8242 46.1828 72.6007 38.064 73.6376C27.9154 74.9338 30.2085 77.2775 30.4749 79.1301C30.7412 80.9827 32.7704 84.1208 36.8135 83.6698Z" fill="#FFE6CF" stroke="#EDCCAC" stroke-opacity="0.5" stroke-width="0.544315"/>
<path opacity="0.7" d="M35.945 81.2167C39.1795 80.8559 46.8461 80.9968 50.2751 81.1124C49.2981 77.371 45.3144 70.1475 37.1955 71.1845C27.047 72.4806 29.3401 74.8243 29.6065 76.677C29.8728 78.5296 31.902 81.6676 35.945 81.2167Z" fill="#FFE6CF"/>
<path d="M32.8525 74.6283C35.446 76.0864 35.7887 81.5504 35.6358 84.1002C35.2162 84.3561 28.2437 85.3847 25.9979 84.9121C23.7521 84.4395 23.2482 82.3863 20.7706 77.8522C18.2929 73.3181 21.0943 72.5306 22.7371 72.3922C24.38 72.2538 25.9341 74.9906 26.9383 75.1266C27.7416 75.2354 31.2158 74.8398 32.8525 74.6283Z" fill="white" stroke="white" stroke-width="0.544315"/>
<mask id="path-7-inside-1_1509_8847" fill="white">
<path d="M63.3331 10.8863C55.6698 12.7507 50.9688 20.4739 52.8329 28.1373C53.8957 32.5062 56.8637 35.911 60.6384 37.6869L61.1162 42.2582L67.8067 41.5594L67.5416 39.0198C68.3845 38.9696 69.2347 38.8451 70.0841 38.6385C73.7594 37.7444 76.753 35.5018 78.6682 32.5653C78.926 32.731 79.2103 32.8561 79.5179 32.9305C81.2761 33.3553 83.1151 31.9898 83.6252 29.8801C84.1351 27.7701 83.1223 25.7153 81.3639 25.2904C81.238 25.2599 81.1116 25.2381 80.9854 25.2257C81.0256 23.963 80.8982 22.6736 80.5851 21.3863C78.7207 13.7228 70.9966 9.02205 63.3331 10.8863Z"/>
</mask>
<path d="M63.3331 10.8863C55.6698 12.7507 50.9688 20.4739 52.8329 28.1373C53.8957 32.5062 56.8637 35.911 60.6384 37.6869L61.1162 42.2582L67.8067 41.5594L67.5416 39.0198C68.3845 38.9696 69.2347 38.8451 70.0841 38.6385C73.7594 37.7444 76.753 35.5018 78.6682 32.5653C78.926 32.731 79.2103 32.8561 79.5179 32.9305C81.2761 33.3553 83.1151 31.9898 83.6252 29.8801C84.1351 27.7701 83.1223 25.7153 81.3639 25.2904C81.238 25.2599 81.1116 25.2381 80.9854 25.2257C81.0256 23.963 80.8982 22.6736 80.5851 21.3863C78.7207 13.7228 70.9966 9.02205 63.3331 10.8863Z" fill="#FFE6CF"/>
<path d="M63.3331 10.8863L63.2044 10.3574L63.2045 10.3574L63.3331 10.8863ZM52.8329 28.1373L52.304 28.266L52.304 28.2659L52.8329 28.1373ZM60.6384 37.6869L60.8701 37.1944L61.1479 37.3251L61.1798 37.6303L60.6384 37.6869ZM61.1162 42.2582L61.1728 42.7996L60.6315 42.8561L60.5749 42.3148L61.1162 42.2582ZM67.8067 41.5594L68.348 41.5029L68.4045 42.0442L67.8632 42.1007L67.8067 41.5594ZM67.5416 39.0198L67.0003 39.0763L66.9412 38.5102L67.5093 38.4764L67.5416 39.0198ZM70.0841 38.6385L70.2128 39.1674L70.2128 39.1674L70.0841 38.6385ZM78.6682 32.5653L78.2123 32.268L78.5077 31.8151L78.9625 32.1074L78.6682 32.5653ZM79.5179 32.9305L79.39 33.4596L79.39 33.4596L79.5179 32.9305ZM83.6252 29.8801L84.1542 30.0079L84.1542 30.008L83.6252 29.8801ZM81.3639 25.2904L81.4917 24.7613L81.4918 24.7613L81.3639 25.2904ZM80.9854 25.2257L80.932 25.7674L80.4251 25.7175L80.4413 25.2083L80.9854 25.2257ZM80.5851 21.3863L81.114 21.2576L81.114 21.2576L80.5851 21.3863ZM63.3331 10.8863L63.4618 11.4152C56.0906 13.2085 51.5687 20.6374 53.3618 28.0086L52.8329 28.1373L52.304 28.2659C50.3689 20.3105 55.2491 12.2928 63.2044 10.3574L63.3331 10.8863ZM52.8329 28.1373L53.3618 28.0086C54.384 32.2106 57.2379 35.4855 60.8701 37.1944L60.6384 37.6869L60.4067 38.1795C56.4896 36.3365 53.4074 32.8017 52.304 28.266L52.8329 28.1373ZM60.6384 37.6869L61.1798 37.6303L61.6576 42.2016L61.1162 42.2582L60.5749 42.3148L60.097 37.7435L60.6384 37.6869ZM61.1162 42.2582L61.0597 41.7168L67.7501 41.018L67.8067 41.5594L67.8632 42.1007L61.1728 42.7996L61.1162 42.2582ZM67.8067 41.5594L67.2653 41.6159L67.0003 39.0763L67.5416 39.0198L68.083 38.9633L68.348 41.5029L67.8067 41.5594ZM67.5416 39.0198L67.5093 38.4764C68.3204 38.4281 69.1384 38.3083 69.9555 38.1096L70.0841 38.6385L70.2128 39.1674C69.331 39.3818 68.4485 39.511 67.574 39.5631L67.5416 39.0198ZM70.0841 38.6385L69.9554 38.1096C73.4908 37.2496 76.3697 35.0931 78.2123 32.268L78.6682 32.5653L79.1241 32.8627C77.1363 35.9104 74.028 38.2393 70.2128 39.1674L70.0841 38.6385ZM78.6682 32.5653L78.9625 32.1074C79.1716 32.2418 79.4 32.342 79.6458 32.4014L79.5179 32.9305L79.39 33.4596C79.0206 33.3703 78.6803 33.2202 78.3739 33.0232L78.6682 32.5653ZM79.5179 32.9305L79.6457 32.4014C81.0256 32.7348 82.6339 31.664 83.0961 29.7522L83.6252 29.8801L84.1542 30.008C83.5963 32.3157 81.5265 33.9758 79.39 33.4596L79.5179 32.9305ZM83.6252 29.8801L83.0961 29.7522C83.5582 27.8402 82.6162 26.153 81.236 25.8194L81.3639 25.2904L81.4918 24.7613C83.6283 25.2776 84.712 27.6999 84.1542 30.0079L83.6252 29.8801ZM81.3639 25.2904L81.2361 25.8195C81.1331 25.7946 81.0316 25.7772 80.932 25.7674L80.9854 25.2257L81.0387 24.684C81.1916 24.699 81.3428 24.7253 81.4917 24.7613L81.3639 25.2904ZM80.9854 25.2257L80.4413 25.2083C80.4801 23.9942 80.3575 22.7539 80.0562 21.5149L80.5851 21.3863L81.114 21.2576C81.4388 22.5933 81.5712 23.9319 81.5294 25.243L80.9854 25.2257ZM80.5851 21.3863L80.0562 21.515C78.2629 14.1436 70.8332 9.62199 63.4618 11.4152L63.3331 10.8863L63.2045 10.3574C71.16 8.42212 79.1786 13.3021 81.114 21.2576L80.5851 21.3863Z" fill="#EDCCAC" fill-opacity="0.5" mask="url(#path-7-inside-1_1509_8847)"/>
<path d="M54.0415 15.8C58.8297 5.06008 69.5355 4.13067 74.0917 6.26533C74.174 6.30389 74.2608 6.3333 74.3495 6.35303C83.2795 8.33897 82.328 18.7025 80.561 24.2915C80.4246 24.7231 80.024 25.0081 79.5715 25.0178L76.8851 25.0751C76.633 25.0805 76.3838 24.9952 76.1844 24.8409C67.282 17.9506 59.6437 16.9124 55.4466 17.432C54.5337 17.545 53.6669 16.6401 54.0415 15.8Z" fill="#956245"/>
<circle cx="1.17915" cy="1.17915" r="1.17915" transform="matrix(-0.971664 0.236367 0.236367 0.971664 58.3663 19.7734)" fill="black"/>
<circle cx="1.17915" cy="1.17915" r="1.17915" transform="matrix(-0.971664 0.236367 0.236367 0.971664 63.0669 21.6523)" fill="black"/>
<g opacity="0.2" filter="url(#filter2_f_1509_8847)">
<circle cx="3.01338" cy="3.01338" r="3.01338" transform="matrix(-0.971664 0.236367 0.236367 0.971664 74.0521 24.4609)" fill="url(#paint2_radial_1509_8847)"/>
<path d="M69.0168 29.099L69.2712 29.0024L69.0168 29.099ZM69.1145 29.2754L69.3315 29.1111L69.1145 29.2754ZM69.2375 29.438L69.0206 29.6022L69.2375 29.438ZM69.3469 29.606L69.1087 29.7375L69.3469 29.606ZM69.3948 29.6927L69.6331 29.5612L69.3948 29.6927ZM69.4427 29.7794L69.2044 29.9109L69.4427 29.7794ZM69.5638 29.9331L69.7474 29.7322L69.5638 29.9331ZM69.7102 30.067L69.5265 30.2678L69.7102 30.067ZM69.8576 30.1975L70.0346 29.9907L69.8576 30.1975ZM70.0061 30.3245L69.8291 30.5313L70.0061 30.3245ZM70.158 30.4484L69.9912 30.6634L70.158 30.4484ZM70.3134 30.569L70.4802 30.3539L70.3134 30.569ZM70.4661 30.7061L70.2713 30.8962L70.4661 30.7061ZM70.6161 30.8598L70.8109 30.6697L70.6161 30.8598ZM70.7887 30.9717L70.8806 30.7155L70.7887 30.9717ZM70.984 31.0417L70.8921 31.2979L70.984 31.0417ZM71.1841 31.0925L71.1426 31.3615L71.1841 31.0925ZM71.2867 31.1083L71.3282 30.8394L71.2867 31.1083ZM71.3892 31.1242L71.3477 31.3931L71.3892 31.1242ZM71.5951 31.1465L71.578 31.4181L71.5951 31.1465ZM71.8019 31.1595L71.819 30.8879L71.8019 31.1595ZM72.0112 31.1726L72.0279 30.9009L72.0112 31.1726ZM72.2229 31.1856L72.2062 31.4572L72.2229 31.1856ZM72.4173 31.1196L72.245 30.909L72.4173 31.1196ZM72.5059 31.0472L72.3336 30.8365L72.5059 31.0472ZM72.7771 30.8703L72.6894 30.6127L72.7771 30.8703ZM72.8711 30.8383L72.9588 31.096L72.8711 30.8383ZM72.9651 30.8064L72.8775 30.5487L72.9651 30.8064ZM73.156 30.7418L73.0691 30.4838L73.156 30.7418ZM73.2527 30.7092L73.3396 30.9671L73.2527 30.7092ZM73.3495 30.6766L73.4364 30.9345L73.3495 30.6766ZM73.5319 30.5878L73.3825 30.3603L73.5319 30.5878ZM73.7029 30.4755L73.5535 30.248L73.7029 30.4755ZM73.885 30.2308L74.1272 30.3549L73.885 30.2308ZM73.9333 30.1366L73.6911 30.0125L73.9333 30.1366ZM74.0776 29.9896L73.9466 29.7511L74.0776 29.9896ZM74.2696 29.8842L74.4006 30.1228L74.2696 29.8842ZM74.4148 29.7404L74.1754 29.611L74.4148 29.7404ZM74.5132 29.5583L74.7527 29.6876L74.5132 29.5583ZM74.5666 29.3598L74.8386 29.3703L74.5666 29.3598ZM74.5708 29.2524L74.8427 29.2629L74.5708 29.2524ZM74.5749 29.145L74.303 29.1345L74.5749 29.145ZM74.6563 28.953L74.4553 28.7696L74.6563 28.953ZM74.8106 28.784L75.0116 28.9675L74.8106 28.784ZM74.9037 28.5952L75.1727 28.6362L74.9037 28.5952ZM74.9196 28.4909L74.6505 28.4499L74.9196 28.4909ZM74.9355 28.3867L75.2045 28.4277L74.9355 28.3867ZM74.9585 28.1762L75.2301 28.1944L74.9585 28.1762ZM74.938 27.7577L75.1889 27.6523L74.938 27.7577ZM74.8542 27.5581L75.1051 27.4527L74.8542 27.5581ZM74.6866 27.285L74.4663 27.4447L74.6866 27.285ZM74.6238 27.1983L74.8441 27.0386L74.6238 27.1983ZM74.5556 27.0039L74.8274 26.9904L74.5556 27.0039ZM74.5502 26.8963L74.2784 26.9098L74.5502 26.8963ZM74.4584 26.6121L74.2823 26.8195L74.4584 26.6121ZM74.3774 26.5433L74.5535 26.3358L74.3774 26.5433ZM74.2963 26.4744L74.4725 26.267L74.2963 26.4744ZM74.1467 26.3347L73.951 26.5238L74.1467 26.3347ZM74.0097 26.1929L74.2054 26.0038L74.0097 26.1929ZM73.8924 26.0271L74.1345 25.9027L73.8924 26.0271ZM73.8437 25.9323L74.0857 25.8079L73.8437 25.9323ZM73.7949 25.8374L73.5528 25.9619L73.7949 25.8374ZM73.6574 25.6913L73.7936 25.4557L73.6574 25.6913ZM73.4799 25.5887L73.3437 25.8244L73.4799 25.5887ZM73.0961 25.4542L73.1701 25.1923L73.0961 25.4542ZM72.7553 25.1982L72.9418 25L72.7553 25.1982ZM72.5689 25.1223L72.5687 24.8501L72.5689 25.1223ZM71.9479 25.0856L71.9152 25.3558L71.9479 25.0856ZM71.5468 25.1464L71.6112 25.4108L71.5468 25.1464ZM70.9864 25.3714L71.056 25.6345L70.9864 25.3714ZM70.8922 25.3963L70.9617 25.6594L70.8922 25.3963ZM70.4276 25.5536L70.5263 25.8072L70.4276 25.5536ZM70.2454 25.6349L70.3678 25.8779L70.2454 25.6349ZM70.1552 25.6803L70.2777 25.9234L70.1552 25.6803ZM70.0651 25.7257L70.1875 25.9688L70.0651 25.7257ZM69.9143 25.8524L70.1325 26.0151L69.9143 25.8524ZM69.7931 26.015L69.5749 25.8524L69.7931 26.015ZM69.6387 26.1496L69.7731 26.3863L69.6387 26.1496ZM69.451 26.2562L69.3166 26.0196L69.451 26.2562ZM69.3349 26.4147L69.6012 26.4711L69.3349 26.4147ZM69.3127 26.5199L69.0464 26.4636L69.3127 26.5199ZM69.2904 26.6251L69.0241 26.5688L69.2904 26.6251ZM69.2405 26.8249L68.9792 26.7486L69.2405 26.8249ZM69.1852 27.0142L68.924 26.9378L69.1852 27.0142ZM69.1065 27.1962L69.3416 27.3334L69.1065 27.1962ZM69.0555 27.2836L68.8205 27.1465L69.0555 27.2836ZM68.9171 27.5554L68.6623 27.4599L68.9171 27.5554ZM68.8808 27.6524L69.1356 27.748L68.8808 27.6524ZM68.8444 27.7494L68.5896 27.6538L68.8444 27.7494ZM68.7808 27.9506L68.5175 27.8818L68.7808 27.9506ZM68.7536 28.0547L69.0169 28.1235L68.7536 28.0547ZM68.7264 28.1589L68.9897 28.2277L68.7264 28.1589ZM68.7806 28.3556L68.9849 28.1758L68.7806 28.3556ZM68.862 28.4481L68.6577 28.6279L68.862 28.4481ZM68.9434 28.5406L68.7391 28.7204L68.9434 28.5406ZM68.9957 28.6782L68.767 28.5306L68.9957 28.6782ZM68.9666 28.7233L68.7379 28.5757L68.9666 28.7233ZM68.9375 28.7684L69.1662 28.916L68.9375 28.7684ZM68.9445 28.9086L68.6901 29.0052L68.9445 28.9086ZM68.9807 29.0038L69.2351 28.9072L69.2712 29.0024L69.0168 29.099L68.7624 29.1956L68.7262 29.1004L68.9807 29.0038ZM69.0168 29.099L69.2712 29.0024C69.2861 29.0416 69.3061 29.0776 69.3315 29.1111L69.1145 29.2754L68.8975 29.4397C68.8409 29.3649 68.7957 29.2833 68.7624 29.1956L69.0168 29.099ZM69.1145 29.2754L69.3315 29.1111L69.393 29.1924L69.176 29.3567L68.959 29.521L68.8975 29.4397L69.1145 29.2754ZM69.176 29.3567L69.393 29.1924L69.4545 29.2737L69.2375 29.438L69.0206 29.6022L68.959 29.521L69.176 29.3567ZM69.2375 29.438L69.4545 29.2737C69.5032 29.3379 69.5468 29.4049 69.5852 29.4744L69.3469 29.606L69.1087 29.7375C69.0832 29.6914 69.0539 29.6463 69.0206 29.6022L69.2375 29.438ZM69.3469 29.606L69.5852 29.4744L69.6331 29.5612L69.3948 29.6927L69.1565 29.8242L69.1087 29.7375L69.3469 29.606ZM69.3948 29.6927L69.6331 29.5612L69.681 29.6479L69.4427 29.7794L69.2044 29.9109L69.1565 29.8242L69.3948 29.6927ZM69.4427 29.7794L69.681 29.6479C69.6985 29.6798 69.7204 29.7076 69.7474 29.7322L69.5638 29.9331L69.3801 30.1339C69.3095 30.0694 69.2507 29.9947 69.2044 29.9109L69.4427 29.7794ZM69.5638 29.9331L69.7474 29.7322L69.8206 29.7992L69.637 30L69.4533 30.2009L69.3801 30.1339L69.5638 29.9331ZM69.637 30L69.8206 29.7992L69.8939 29.8661L69.7102 30.067L69.5265 30.2678L69.4533 30.2009L69.637 30ZM69.7102 30.067L69.8939 29.8661C69.9405 29.9088 69.9874 29.9503 70.0346 29.9907L69.8576 30.1975L69.6806 30.4042C69.6289 30.3599 69.5775 30.3144 69.5265 30.2678L69.7102 30.067ZM69.8576 30.1975L70.0346 29.9907L70.1088 30.0543L69.9319 30.261L69.7549 30.4678L69.6806 30.4042L69.8576 30.1975ZM69.9319 30.261L70.1088 30.0543L70.1831 30.1178L70.0061 30.3245L69.8291 30.5313L69.7549 30.4678L69.9319 30.261ZM70.0061 30.3245L70.1831 30.1178C70.2292 30.1573 70.2765 30.1958 70.3248 30.2333L70.158 30.4484L69.9912 30.6634C69.9359 30.6205 69.8819 30.5765 69.8291 30.5313L70.0061 30.3245ZM70.158 30.4484L70.3248 30.2333L70.4025 30.2936L70.2357 30.5087L70.0689 30.7237L69.9912 30.6634L70.158 30.4484ZM70.2357 30.5087L70.4025 30.2936L70.4802 30.3539L70.3134 30.569L70.1466 30.784L70.0689 30.7237L70.2357 30.5087ZM70.3134 30.569L70.4802 30.3539C70.5428 30.4025 70.603 30.4567 70.6609 30.516L70.4661 30.7061L70.2713 30.8962C70.2293 30.8531 70.1876 30.8158 70.1466 30.784L70.3134 30.569ZM70.4661 30.7061L70.6609 30.516L70.7359 30.5929L70.5411 30.783L70.3463 30.973L70.2713 30.8962L70.4661 30.7061ZM70.5411 30.783L70.7359 30.5929L70.8109 30.6697L70.6161 30.8598L70.4213 31.0499L70.3463 30.973L70.5411 30.783ZM70.6161 30.8598L70.8109 30.6697C70.8331 30.6925 70.8557 30.7066 70.8806 30.7155L70.7887 30.9717L70.6968 31.2279C70.5915 31.1901 70.4991 31.1296 70.4213 31.0499L70.6161 30.8598ZM70.7887 30.9717L70.8806 30.7155L70.9782 30.7505L70.8863 31.0067L70.7945 31.2629L70.6968 31.2279L70.7887 30.9717ZM70.8863 31.0067L70.9782 30.7505L71.0758 30.7855L70.984 31.0417L70.8921 31.2979L70.7945 31.2629L70.8863 31.0067ZM70.984 31.0417L71.0758 30.7855C71.1246 30.803 71.1745 30.8156 71.2257 30.8236L71.1841 31.0925L71.1426 31.3615C71.0571 31.3483 70.9735 31.3271 70.8921 31.2979L70.984 31.0417ZM71.1841 31.0925L71.2257 30.8236L71.3282 30.8394L71.2867 31.1083L71.2451 31.3773L71.1426 31.3615L71.1841 31.0925ZM71.2867 31.1083L71.3282 30.8394L71.4307 30.8552L71.3892 31.1242L71.3477 31.3931L71.2451 31.3773L71.2867 31.1083ZM71.3892 31.1242L71.4307 30.8552C71.491 30.8645 71.5515 30.8711 71.6122 30.8749L71.5951 31.1465L71.578 31.4181C71.5009 31.4133 71.4241 31.4049 71.3477 31.3931L71.3892 31.1242ZM71.5951 31.1465L71.6122 30.8749L71.7156 30.8814L71.6985 31.153L71.6814 31.4247L71.578 31.4181L71.5951 31.1465ZM71.6985 31.153L71.7156 30.8814L71.819 30.8879L71.8019 31.1595L71.7848 31.4312L71.6814 31.4247L71.6985 31.153ZM71.8019 31.1595L71.819 30.8879C71.8878 30.8923 71.9575 30.8966 72.0279 30.9009L72.0112 31.1726L71.9945 31.4442C71.9238 31.4399 71.8539 31.4355 71.7848 31.4312L71.8019 31.1595ZM72.0112 31.1726L72.0279 30.9009L72.1337 30.9074L72.117 31.1791L72.1004 31.4507L71.9945 31.4442L72.0112 31.1726ZM72.117 31.1791L72.1337 30.9074L72.2396 30.9139L72.2229 31.1856L72.2062 31.4572L72.1004 31.4507L72.117 31.1791ZM72.2229 31.1856L72.2396 30.9139C72.2405 30.914 72.2404 30.9139 72.2396 30.914C72.2387 30.9141 72.2377 30.9144 72.237 30.9146C72.2352 30.9152 72.2379 30.9148 72.245 30.909L72.4173 31.1196L72.5896 31.3303C72.4821 31.4183 72.3509 31.4661 72.2062 31.4572L72.2229 31.1856ZM72.4173 31.1196L72.245 30.909L72.3336 30.8365L72.5059 31.0472L72.6782 31.2579L72.5896 31.3303L72.4173 31.1196ZM72.5059 31.0472L72.3336 30.8365L72.4222 30.7641L72.5944 30.9748L72.7667 31.1854L72.6782 31.2579L72.5059 31.0472ZM72.5944 30.9748L72.4222 30.7641C72.5026 30.6983 72.5916 30.646 72.6894 30.6127L72.7771 30.8703L72.8647 31.128C72.8371 31.1374 72.8044 31.1547 72.7667 31.1854L72.5944 30.9748ZM72.7771 30.8703L72.6894 30.6127L72.7834 30.5807L72.8711 30.8383L72.9588 31.096L72.8647 31.128L72.7771 30.8703ZM72.8711 30.8383L72.7834 30.5807L72.8775 30.5487L72.9651 30.8064L73.0528 31.064L72.9588 31.096L72.8711 30.8383ZM72.9651 30.8064L72.8775 30.5487C72.9404 30.5273 73.0043 30.5057 73.0691 30.4838L73.156 30.7418L73.2428 30.9997C73.1785 31.0213 73.1152 31.0428 73.0528 31.064L72.9651 30.8064ZM73.156 30.7418L73.0691 30.4838L73.1659 30.4512L73.2527 30.7092L73.3396 30.9671L73.2428 30.9997L73.156 30.7418ZM73.2527 30.7092L73.1659 30.4512L73.2627 30.4186L73.3495 30.6766L73.4364 30.9345L73.3396 30.9671L73.2527 30.7092ZM73.3495 30.6766L73.2627 30.4186C73.3051 30.4044 73.3449 30.385 73.3825 30.3603L73.5319 30.5878L73.6812 30.8153C73.6048 30.8655 73.523 30.9053 73.4364 30.9345L73.3495 30.6766ZM73.5319 30.5878L73.3825 30.3603L73.468 30.3042L73.6174 30.5317L73.7668 30.7591L73.6812 30.8153L73.5319 30.5878ZM73.6174 30.5317L73.468 30.3042L73.5535 30.248L73.7029 30.4755L73.8523 30.703L73.7668 30.7591L73.6174 30.5317ZM73.7029 30.4755L73.5535 30.248C73.5698 30.2373 73.583 30.2234 73.5945 30.201L73.8367 30.3251L74.0789 30.4492C74.0261 30.5524 73.9501 30.6388 73.8523 30.703L73.7029 30.4755ZM73.8367 30.3251L73.5945 30.201L73.6428 30.1067L73.885 30.2308L74.1272 30.3549L74.0789 30.4492L73.8367 30.3251ZM73.885 30.2308L73.6428 30.1067L73.6911 30.0125L73.9333 30.1366L74.1755 30.2607L74.1272 30.3549L73.885 30.2308ZM73.9333 30.1366L73.6911 30.0125C73.7489 29.8995 73.8366 29.8114 73.9466 29.7511L74.0776 29.9896L74.2086 30.2282C74.1905 30.2381 74.182 30.248 74.1755 30.2607L73.9333 30.1366ZM74.0776 29.9896L73.9466 29.7511L74.0426 29.6983L74.1736 29.9369L74.3046 30.1755L74.2086 30.2282L74.0776 29.9896ZM74.1736 29.9369L74.0426 29.6983L74.1386 29.6456L74.2696 29.8842L74.4006 30.1228L74.3046 30.1755L74.1736 29.9369ZM74.2696 29.8842L74.1386 29.6456C74.1595 29.6342 74.169 29.6229 74.1754 29.611L74.4148 29.7404L74.6543 29.8698C74.5951 29.9793 74.5077 30.064 74.4006 30.1228L74.2696 29.8842ZM74.4148 29.7404L74.1754 29.611L74.2246 29.52L74.464 29.6493L74.7035 29.7787L74.6543 29.8698L74.4148 29.7404ZM74.464 29.6493L74.2246 29.52L74.2738 29.4289L74.5132 29.5583L74.7527 29.6876L74.7035 29.7787L74.464 29.6493ZM74.5132 29.5583L74.2738 29.4289C74.2861 29.4062 74.2934 29.3809 74.2947 29.3493L74.5666 29.3598L74.8386 29.3703C74.8343 29.4819 74.806 29.5889 74.7527 29.6876L74.5132 29.5583ZM74.5666 29.3598L74.2947 29.3493L74.2988 29.2419L74.5708 29.2524L74.8427 29.2629L74.8386 29.3703L74.5666 29.3598ZM74.5708 29.2524L74.2988 29.2419L74.303 29.1345L74.5749 29.145L74.8469 29.1555L74.8427 29.2629L74.5708 29.2524ZM74.5749 29.145L74.303 29.1345C74.3084 28.9943 74.3635 28.87 74.4553 28.7696L74.6563 28.953L74.8573 29.1365C74.8503 29.1442 74.8483 29.1485 74.8479 29.1495C74.8476 29.1502 74.847 29.1516 74.8469 29.1555L74.5749 29.145ZM74.6563 28.953L74.4553 28.7696L74.5324 28.685L74.7334 28.8685L74.9344 29.052L74.8573 29.1365L74.6563 28.953ZM74.7334 28.8685L74.5324 28.685L74.6096 28.6005L74.8106 28.784L75.0116 28.9675L74.9344 29.052L74.7334 28.8685ZM74.8106 28.784L74.6096 28.6005C74.628 28.5803 74.6328 28.5659 74.6346 28.5542L74.9037 28.5952L75.1727 28.6362C75.1533 28.7635 75.0961 28.8749 75.0116 28.9675L74.8106 28.784ZM74.9037 28.5952L74.6346 28.5542L74.6505 28.4499L74.9196 28.4909L75.1886 28.532L75.1727 28.6362L74.9037 28.5952ZM74.9196 28.4909L74.6505 28.4499L74.6664 28.3456L74.9355 28.3867L75.2045 28.4277L75.1886 28.532L74.9196 28.4909ZM74.9355 28.3867L74.6664 28.3456C74.6759 28.2838 74.6827 28.2212 74.687 28.158L74.9585 28.1762L75.2301 28.1944C75.2248 28.2728 75.2163 28.3506 75.2045 28.4277L74.9355 28.3867ZM74.9585 28.1762L74.687 28.158L74.6941 28.0517L74.9656 28.07L75.2372 28.0882L75.2301 28.1944L74.9585 28.1762ZM74.9656 28.07L74.6941 28.0517L74.7012 27.9455L74.9728 27.9637L75.2443 27.982L75.2372 28.0882L74.9656 28.07ZM74.9728 27.9637L74.7012 27.9455C74.7031 27.9176 74.6989 27.8912 74.6871 27.8631L74.938 27.7577L75.1889 27.6523C75.233 27.7572 75.252 27.8682 75.2443 27.982L74.9728 27.9637ZM74.938 27.7577L74.6871 27.8631L74.6452 27.7633L74.8961 27.6579L75.147 27.5525L75.1889 27.6523L74.938 27.7577ZM74.8961 27.6579L74.6452 27.7633L74.6033 27.6635L74.8542 27.5581L75.1051 27.4527L75.147 27.5525L74.8961 27.6579ZM74.8542 27.5581L74.6033 27.6635C74.5833 27.616 74.5586 27.5721 74.5291 27.5314L74.7494 27.3716L74.9698 27.2119C75.0241 27.2868 75.0692 27.3672 75.1051 27.4527L74.8542 27.5581ZM74.7494 27.3716L74.5291 27.5314L74.4663 27.4447L74.6866 27.285L74.907 27.1252L74.9698 27.2119L74.7494 27.3716ZM74.6866 27.285L74.4663 27.4447L74.4034 27.3581L74.6238 27.1983L74.8441 27.0386L74.907 27.1252L74.6866 27.285ZM74.6238 27.1983L74.4034 27.3581C74.3303 27.2572 74.2899 27.1416 74.2838 27.0175L74.5556 27.0039L74.8274 26.9904C74.8284 27.0099 74.8334 27.0238 74.8441 27.0386L74.6238 27.1983ZM74.5556 27.0039L74.2838 27.0175L74.2784 26.9098L74.5502 26.8963L74.822 26.8827L74.8274 26.9904L74.5556 27.0039ZM74.5502 26.8963L74.2784 26.9098L74.273 26.8021L74.5448 26.7886L74.8167 26.775L74.822 26.8827L74.5502 26.8963ZM74.5448 26.7886L74.273 26.8021C74.2729 26.8005 74.2728 26.8008 74.2733 26.8027C74.2737 26.8045 74.2746 26.8072 74.2761 26.8103C74.2776 26.8134 74.2793 26.8159 74.2808 26.8178C74.2822 26.8196 74.2829 26.8201 74.2823 26.8195L74.4584 26.6121L74.6346 26.4046C74.7468 26.4999 74.8094 26.6294 74.8167 26.775L74.5448 26.7886ZM74.4584 26.6121L74.2823 26.8195L74.2012 26.7507L74.3774 26.5433L74.5535 26.3358L74.6346 26.4046L74.4584 26.6121ZM74.3774 26.5433L74.2012 26.7507L74.1202 26.6819L74.2963 26.4744L74.4725 26.267L74.5535 26.3358L74.3774 26.5433ZM74.2963 26.4744L74.1202 26.6819C74.0598 26.6307 74.0034 26.578 73.951 26.5238L74.1467 26.3347L74.3424 26.1456C74.3814 26.1859 74.4247 26.2264 74.4725 26.267L74.2963 26.4744ZM74.1467 26.3347L73.951 26.5238L73.8825 26.4529L74.0782 26.2638L74.2739 26.0747L74.3424 26.1456L74.1467 26.3347ZM74.0782 26.2638L73.8825 26.4529L73.814 26.382L74.0097 26.1929L74.2054 26.0038L74.2739 26.0747L74.0782 26.2638ZM74.0097 26.1929L73.814 26.382C73.7483 26.3141 73.6941 26.2366 73.6503 26.1516L73.8924 26.0271L74.1345 25.9027C74.1558 25.9442 74.1797 25.9772 74.2054 26.0038L74.0097 26.1929ZM73.8924 26.0271L73.6503 26.1516L73.6016 26.0567L73.8437 25.9323L74.0857 25.8079L74.1345 25.9027L73.8924 26.0271ZM73.8437 25.9323L73.6016 26.0567L73.5528 25.9619L73.7949 25.8374L74.037 25.713L74.0857 25.8079L73.8437 25.9323ZM73.7949 25.8374L73.5528 25.9619C73.5432 25.9431 73.5333 25.9339 73.5212 25.9269L73.6574 25.6913L73.7936 25.4557C73.8999 25.5171 73.9816 25.6053 74.037 25.713L73.7949 25.8374ZM73.6574 25.6913L73.5212 25.9269L73.4325 25.8757L73.5687 25.64L73.7049 25.4044L73.7936 25.4557L73.6574 25.6913ZM73.5687 25.64L73.4325 25.8757L73.3437 25.8244L73.4799 25.5887L73.6161 25.3531L73.7049 25.4044L73.5687 25.64ZM73.4799 25.5887L73.3437 25.8244C73.3041 25.8015 73.2627 25.784 73.2189 25.7716L73.2928 25.5097L73.3668 25.2478C73.4542 25.2724 73.5374 25.3076 73.6161 25.3531L73.4799 25.5887ZM73.2928 25.5097L73.2189 25.7716L73.1206 25.7439L73.1945 25.4819L73.2684 25.22L73.3668 25.2478L73.2928 25.5097ZM73.1945 25.4819L73.1206 25.7439L73.0222 25.7161L73.0961 25.4542L73.1701 25.1923L73.2684 25.22L73.1945 25.4819ZM73.0961 25.4542L73.0222 25.7161C72.911 25.6847 72.8134 25.6266 72.7305 25.5486L72.917 25.3504L73.1035 25.1522C73.1283 25.1755 73.1502 25.1866 73.1701 25.1923L73.0961 25.4542ZM72.917 25.3504L72.7305 25.5486L72.6496 25.4725L72.8361 25.2743L73.0226 25.0761L73.1035 25.1522L72.917 25.3504ZM72.8361 25.2743L72.6496 25.4725L72.5688 25.3965L72.7553 25.1982L72.9418 25L73.0226 25.0761L72.8361 25.2743ZM72.7553 25.1982L72.5688 25.3965C72.5637 25.3917 72.5626 25.392 72.5655 25.3932C72.5668 25.3937 72.5681 25.3941 72.5691 25.3943C72.5702 25.3945 72.5703 25.3944 72.5691 25.3944L72.5689 25.1223L72.5687 24.8501C72.7123 24.85 72.8403 24.9045 72.9418 25L72.7553 25.1982ZM72.5689 25.1223L72.5691 25.3944L72.4636 25.3945L72.4634 25.1223L72.4632 24.8502L72.5687 24.8501L72.5689 25.1223ZM72.4634 25.1223L72.4636 25.3945L72.3581 25.3946L72.3579 25.1224L72.3577 24.8503L72.4632 24.8502L72.4634 25.1223ZM72.3579 25.1224L72.3581 25.3946C72.2771 25.3946 72.1971 25.39 72.1182 25.3804L72.1509 25.1102L72.1836 24.84C72.24 24.8469 72.298 24.8503 72.3577 24.8503L72.3579 25.1224ZM72.1509 25.1102L72.1182 25.3804L72.0167 25.3681L72.0494 25.0979L72.0821 24.8277L72.1836 24.84L72.1509 25.1102ZM72.0494 25.0979L72.0167 25.3681L71.9152 25.3558L71.9479 25.0856L71.9806 24.8155L72.0821 24.8277L72.0494 25.0979ZM71.9479 25.0856L71.9152 25.3558C71.8802 25.3516 71.846 25.3536 71.811 25.3621L71.7465 25.0977L71.6821 24.8333C71.7803 24.8093 71.8803 24.8033 71.9806 24.8155L71.9479 25.0856ZM71.7465 25.0977L71.811 25.3621L71.7111 25.3864L71.6467 25.122L71.5822 24.8576L71.6821 24.8333L71.7465 25.0977ZM71.6467 25.122L71.7111 25.3864L71.6112 25.4108L71.5468 25.1464L71.4823 24.8819L71.5822 24.8576L71.6467 25.122ZM71.5468 25.1464L71.6112 25.4108C71.5628 25.4226 71.5168 25.439 71.4731 25.46L71.3553 25.2146L71.2376 24.9693C71.3159 24.9317 71.3976 24.9026 71.4823 24.8819L71.5468 25.1464ZM71.3553 25.2146L71.4731 25.46L71.3815 25.5039L71.2638 25.2586L71.146 25.0132L71.2376 24.9693L71.3553 25.2146ZM71.2638 25.2586L71.3815 25.5039L71.2899 25.5479L71.1722 25.3025L71.0544 25.0572L71.146 25.0132L71.2638 25.2586ZM71.1722 25.3025L71.2899 25.5479C71.2141 25.5843 71.136 25.6133 71.056 25.6345L70.9864 25.3714L70.9168 25.1083C70.9624 25.0962 71.0082 25.0793 71.0544 25.0572L71.1722 25.3025ZM70.9864 25.3714L71.056 25.6345L70.9617 25.6594L70.8922 25.3963L70.8226 25.1332L70.9168 25.1083L70.9864 25.3714ZM70.8922 25.3963L70.9617 25.6594L70.8675 25.6843L70.7979 25.4212L70.7284 25.1581L70.8226 25.1332L70.8922 25.3963ZM70.7979 25.4212L70.8675 25.6843C70.8147 25.6983 70.7623 25.7153 70.7104 25.7356L70.6117 25.4819L70.5129 25.2283C70.5837 25.2008 70.6555 25.1773 70.7284 25.1581L70.7979 25.4212ZM70.6117 25.4819L70.7104 25.7356L70.6183 25.7714L70.5196 25.5178L70.4209 25.2642L70.5129 25.2283L70.6117 25.4819ZM70.5196 25.5178L70.6183 25.7714L70.5263 25.8072L70.4276 25.5536L70.3288 25.3L70.4209 25.2642L70.5196 25.5178ZM70.4276 25.5536L70.5263 25.8072C70.4732 25.8279 70.4203 25.8515 70.3678 25.8779L70.2454 25.6349L70.1229 25.3918C70.1906 25.3577 70.2592 25.3271 70.3288 25.3L70.4276 25.5536ZM70.2454 25.6349L70.3678 25.8779L70.2777 25.9234L70.1552 25.6803L70.0327 25.4373L70.1229 25.3918L70.2454 25.6349ZM70.1552 25.6803L70.2777 25.9234L70.1875 25.9688L70.0651 25.7257L69.9426 25.4827L70.0327 25.4373L70.1552 25.6803ZM70.0651 25.7257L70.1875 25.9688C70.1653 25.98 70.1478 25.9946 70.1325 26.0151L69.9143 25.8524L69.6961 25.6898C69.7617 25.6019 69.8446 25.532 69.9426 25.4827L70.0651 25.7257ZM69.9143 25.8524L70.1325 26.0151L70.0719 26.0964L69.8537 25.9337L69.6355 25.7711L69.6961 25.6898L69.9143 25.8524ZM69.8537 25.9337L70.0719 26.0964L70.0113 26.1777L69.7931 26.015L69.5749 25.8524L69.6355 25.7711L69.8537 25.9337ZM69.7931 26.015L70.0113 26.1777C69.947 26.264 69.8662 26.3333 69.7731 26.3863L69.6387 26.1496L69.5042 25.913C69.5362 25.8948 69.5584 25.8745 69.5749 25.8524L69.7931 26.015ZM69.6387 26.1496L69.7731 26.3863L69.6793 26.4396L69.5448 26.2029L69.4104 25.9663L69.5042 25.913L69.6387 26.1496ZM69.5448 26.2029L69.6793 26.4396L69.5855 26.4929L69.451 26.2562L69.3166 26.0196L69.4104 25.9663L69.5448 26.2029ZM69.451 26.2562L69.5855 26.4929C69.5843 26.4935 69.5891 26.4908 69.5946 26.4833C69.5971 26.4799 69.5989 26.4766 69.6001 26.474C69.6012 26.4715 69.6014 26.4703 69.6012 26.4711L69.3349 26.4147L69.0687 26.3584C69.0997 26.2117 69.1866 26.0934 69.3166 26.0196L69.451 26.2562ZM69.3349 26.4147L69.6012 26.4711L69.5789 26.5763L69.3127 26.5199L69.0464 26.4636L69.0687 26.3584L69.3349 26.4147ZM69.3127 26.5199L69.5789 26.5763L69.5567 26.6815L69.2904 26.6251L69.0241 26.5688L69.0464 26.4636L69.3127 26.5199ZM69.2904 26.6251L69.5567 26.6815C69.5405 26.7577 69.5222 26.831 69.5017 26.9013L69.2405 26.8249L68.9792 26.7486C68.9956 26.6927 69.0106 26.6328 69.0241 26.5688L69.2904 26.6251ZM69.2405 26.8249L69.5017 26.9013L69.4741 26.9959L69.2128 26.9196L68.9516 26.8432L68.9792 26.7486L69.2405 26.8249ZM69.2128 26.9196L69.4741 26.9959L69.4464 27.0905L69.1852 27.0142L68.924 26.9378L68.9516 26.8432L69.2128 26.9196ZM69.1852 27.0142L69.4464 27.0905C69.4216 27.1754 69.3865 27.2565 69.3416 27.3334L69.1065 27.1962L68.8715 27.059C68.8946 27.0194 68.9119 26.9791 68.924 26.9378L69.1852 27.0142ZM69.1065 27.1962L69.3416 27.3334L69.2906 27.4208L69.0555 27.2836L68.8205 27.1465L68.8715 27.059L69.1065 27.1962ZM69.0555 27.2836L69.2906 27.4208L69.2396 27.5082L69.0045 27.371L68.7694 27.2339L68.8205 27.1465L69.0555 27.2836ZM69.0045 27.371L69.2396 27.5082C69.2135 27.5529 69.1909 27.6004 69.172 27.651L68.9171 27.5554L68.6623 27.4599C68.6918 27.3812 68.7275 27.3057 68.7694 27.2339L69.0045 27.371ZM68.9171 27.5554L69.172 27.651L69.1356 27.748L68.8808 27.6524L68.6259 27.5569L68.6623 27.4599L68.9171 27.5554ZM68.8808 27.6524L69.1356 27.748L69.0992 27.845L68.8444 27.7494L68.5896 27.6538L68.6259 27.5569L68.8808 27.6524ZM68.8444 27.7494L69.0992 27.845C69.0784 27.9005 69.06 27.9586 69.0441 28.0194L68.7808 27.9506L68.5175 27.8818C68.5379 27.8036 68.5619 27.7276 68.5896 27.6538L68.8444 27.7494ZM68.7808 27.9506L69.0441 28.0194L69.0169 28.1235L68.7536 28.0547L68.4903 27.9859L68.5175 27.8818L68.7808 27.9506ZM68.7536 28.0547L69.0169 28.1235L68.9897 28.2277L68.7264 28.1589L68.4631 28.0901L68.4903 27.9859L68.7536 28.0547ZM68.7264 28.1589L68.9897 28.2277C68.9906 28.2241 68.9917 28.2181 68.9917 28.2104C68.9917 28.2026 68.9906 28.1949 68.9887 28.1878C68.9847 28.1734 68.9794 28.1696 68.9849 28.1758L68.7806 28.3556L68.5763 28.5354C68.4723 28.4172 68.4184 28.2608 68.4631 28.0901L68.7264 28.1589ZM68.7806 28.3556L68.9849 28.1758L69.0663 28.2683L68.862 28.4481L68.6577 28.6279L68.5763 28.5354L68.7806 28.3556ZM68.862 28.4481L69.0663 28.2683L69.1477 28.3608L68.9434 28.5406L68.7391 28.7204L68.6577 28.6279L68.862 28.4481ZM68.9434 28.5406L69.1477 28.3608C69.1839 28.4019 69.226 28.4574 69.2516 28.5245C69.2787 28.596 69.2971 28.7132 69.2244 28.8258L68.9957 28.6782L68.767 28.5306C68.7431 28.5677 68.7322 28.6084 68.7313 28.6457C68.7304 28.6803 68.7381 28.7056 68.7428 28.718C68.7509 28.7392 68.7572 28.741 68.7391 28.7204L68.9434 28.5406ZM68.9957 28.6782L69.2244 28.8258L69.1953 28.8709L68.9666 28.7233L68.7379 28.5757L68.767 28.5306L68.9957 28.6782ZM68.9666 28.7233L69.1953 28.8709L69.1662 28.916L68.9375 28.7684L68.7088 28.6208L68.7379 28.5757L68.9666 28.7233ZM68.9375 28.7684L69.1662 28.916C69.1957 28.8702 69.1973 28.8284 69.1965 28.8123C69.1958 28.7977 69.1929 28.796 69.199 28.812L68.9445 28.9086L68.6901 29.0052C68.6611 28.9287 68.6137 28.7682 68.7088 28.6208L68.9375 28.7684ZM68.9445 28.9086L69.199 28.812L69.2351 28.9072L68.9807 29.0038L68.7262 29.1004L68.6901 29.0052L68.9445 28.9086Z" fill="url(#paint3_radial_1509_8847)"/>
</g>
<ellipse cx="4.71659" cy="5.37167" rx="4.71659" ry="5.37167" transform="matrix(-0.971664 0.236367 0.236367 0.971664 34.9818 42.3281)" fill="#FFE6CF"/>
<g filter="url(#filter3_n_1509_8847)">
<path d="M76.5135 47.3283C72.9406 37.5184 58.6036 40.4037 51.8818 43.0726L44.8801 44.7759C43.989 44.9926 39.7054 44.0122 38.7489 44.5145C38.3728 44.712 37.3993 44.6683 36.3258 44.5313C35.2996 44.4004 34.3521 45.779 34.5748 46.7892C35.1041 49.1905 34.3734 51.674 33.6144 53.2289C33.4012 53.6656 33.4485 54.1974 33.7966 54.5367C36.2005 56.8798 39.7853 59.0155 42.2429 60.2845C42.9689 60.6594 43.1771 61.7748 42.6994 62.4377C41.595 63.9706 40.1605 66.3393 39.2915 67.8388C39.1709 68.0469 38.9866 68.2087 38.7646 68.301L36.2562 69.3427C35.6771 69.5832 35.4203 70.2619 35.6953 70.8255L37.0703 73.6432C41.0513 82.2482 51.129 86.5385 65.1084 86.9133C79.0878 87.2881 83.5399 81.7555 83.3265 75.3352C83.113 68.915 80.6048 68.5813 79.0805 63.4237C77.5562 58.2662 80.9797 59.5908 76.5135 47.3283Z" fill="#F59051"/>
</g>
<path d="M61.8976 57.0854C59.0258 58.9526 51.3396 62.3505 43.5692 61.0046" stroke="#C96F37" stroke-opacity="0.6" stroke-width="0.816473"/>
<path d="M34.1879 71.2165C34.8234 71.4277 35.5799 72.9007 35.6959 73.4057C35.7052 73.5152 35.1101 73.5212 34.1177 74.3107C32.8773 75.2976 29.5455 75.0268 27.7181 72.9748C25.8908 70.9227 27.9163 70.0903 29.121 69.9888C30.0848 69.9076 30.7831 70.9518 31.0118 71.4841C31.9156 71.7388 33.3936 70.9525 34.1879 71.2165Z" fill="white"/>
</g>
</g>
<defs>
<filter id="filter0_n_1509_8847" x="1.39062" y="1.39062" width="46.6646" height="46.6641" filterUnits="userSpaceOnUse" color-interpolation-filters="sRGB">
<feFlood flood-opacity="0" result="BackgroundImageFix"/>
<feBlend mode="normal" in="SourceGraphic" in2="BackgroundImageFix" result="shape"/>
<feTurbulence type="fractalNoise" baseFrequency="5.0576305389404297 5.0576305389404297" stitchTiles="stitch" numOctaves="3" result="noise" seed="7802" />
<feColorMatrix in="noise" type="luminanceToAlpha" result="alphaNoise" />
<feComponentTransfer in="alphaNoise" result="coloredNoise1">
<feFuncA type="discrete" tableValues="1 1 1 1 1 1 1 1 1 1 1 1 1 1 1 1 1 1 1 1 1 1 1 1 1 1 1 1 1 1 1 1 1 1 1 1 1 1 1 1 1 1 1 1 1 1 1 1 1 1 1 0 0 0 0 0 0 0 0 0 0 0 0 0 0 0 0 0 0 0 0 0 0 0 0 0 0 0 0 0 0 0 0 0 0 0 0 0 0 0 0 0 0 0 0 0 0 0 0 0 "/>
</feComponentTransfer>
<feComposite operator="in" in2="shape" in="coloredNoise1" result="noise1Clipped" />
<feFlood flood-color="rgba(255, 255, 255, 0.1)" result="color1Flood" />
<feComposite operator="in" in2="noise1Clipped" in="color1Flood" result="color1" />
<feMerge result="effect1_noise_1509_8847">
<feMergeNode in="shape" />
<feMergeNode in="color1" />
</feMerge>
</filter>
<filter id="filter1_d_1509_8847" x="11.8967" y="-2.28057" width="83.4426" height="96.8326" filterUnits="userSpaceOnUse" color-interpolation-filters="sRGB">
<feFlood flood-opacity="0" result="BackgroundImageFix"/>
<feColorMatrix in="SourceAlpha" type="matrix" values="0 0 0 0 0 0 0 0 0 0 0 0 0 0 0 0 0 0 127 0" result="hardAlpha"/>
<feOffset/>
<feGaussianBlur stdDeviation="3.81021"/>
<feComposite in2="hardAlpha" operator="out"/>
<feColorMatrix type="matrix" values="0 0 0 0 0 0 0 0 0 0 0 0 0 0 0 0 0 0 0.07 0"/>
<feBlend mode="normal" in2="BackgroundImageFix" result="effect1_dropShadow_1509_8847"/>
<feBlend mode="normal" in="SourceGraphic" in2="effect1_dropShadow_1509_8847" result="shape"/>
</filter>
<filter id="filter2_f_1509_8847" x="67.3586" y="23.72" width="8.97597" height="8.82765" filterUnits="userSpaceOnUse" color-interpolation-filters="sRGB">
<feFlood flood-opacity="0" result="BackgroundImageFix"/>
<feBlend mode="normal" in="SourceGraphic" in2="BackgroundImageFix" result="shape"/>
<feGaussianBlur stdDeviation="0.544315" result="effect1_foregroundBlur_1509_8847"/>
</filter>
<filter id="filter3_n_1509_8847" x="33.4862" y="40.5059" width="49.8475" height="46.4258" filterUnits="userSpaceOnUse" color-interpolation-filters="sRGB">
<feFlood flood-opacity="0" result="BackgroundImageFix"/>
<feBlend mode="normal" in="SourceGraphic" in2="BackgroundImageFix" result="shape"/>
<feTurbulence type="fractalNoise" baseFrequency="3.6743414402008057 3.6743414402008057" stitchTiles="stitch" numOctaves="3" result="noise" seed="6418" />
<feColorMatrix in="noise" type="luminanceToAlpha" result="alphaNoise" />
<feComponentTransfer in="alphaNoise" result="coloredNoise1">
<feFuncA type="discrete" tableValues="1 1 1 1 1 1 1 1 1 1 1 1 1 1 1 1 1 1 1 1 1 1 1 1 1 1 1 1 1 1 1 1 1 1 1 1 1 1 1 1 1 1 1 1 1 1 1 1 1 1 1 0 0 0 0 0 0 0 0 0 0 0 0 0 0 0 0 0 0 0 0 0 0 0 0 0 0 0 0 0 0 0 0 0 0 0 0 0 0 0 0 0 0 0 0 0 0 0 0 0 "/>
</feComponentTransfer>
<feComposite operator="in" in2="shape" in="coloredNoise1" result="noise1Clipped" />
<feFlood flood-color="rgba(255, 208, 163, 0.3)" result="color1Flood" />
<feComposite operator="in" in2="noise1Clipped" in="color1Flood" result="color1" />
<feMerge result="effect1_noise_1509_8847">
<feMergeNode in="shape" />
<feMergeNode in="color1" />
</feMerge>
</filter>
<linearGradient id="paint0_linear_1509_8847" x1="29.9464" y1="48.659" x2="37.6734" y2="58.68" gradientUnits="userSpaceOnUse">
<stop stop-color="#2079C7"/>
<stop offset="1" stop-color="#3166E3"/>
</linearGradient>
<linearGradient id="paint1_linear_1509_8847" x1="-20.6021" y1="38.3132" x2="83.4209" y2="-3.42346" gradientUnits="userSpaceOnUse">
<stop stop-color="#096CC5"/>
<stop offset="1" stop-color="#83C0F7"/>
</linearGradient>
<radialGradient id="paint2_radial_1509_8847" cx="0" cy="0" r="1" gradientUnits="userSpaceOnUse" gradientTransform="translate(3.01338 3.01338) rotate(82.5644) scale(4.96084)">
<stop stop-color="#E53B3D"/>
<stop offset="0.961538" stop-color="#FAC5C6"/>
</radialGradient>
<radialGradient id="paint3_radial_1509_8847" cx="0" cy="0" r="1" gradientUnits="userSpaceOnUse" gradientTransform="translate(71.8364 28.1012) rotate(83.7634) scale(4.96084)">
<stop stop-color="#E53B3D"/>
<stop offset="0.961538" stop-color="#FAC5C6"/>
</radialGradient>
<clipPath id="clip0_1509_8847">
<rect width="90" height="88" fill="white"/>
</clipPath>
</defs>
</svg>
