<svg width="49" height="54" viewBox="0 0 49 54" fill="none" xmlns="http://www.w3.org/2000/svg">
<circle cx="25.4438" cy="23.6114" r="17.8106" fill="#FE958C"/>
<path d="M27.0429 18.4454V30.6358L26.7762 30.8644H23.9381L23.6905 30.6358V21.9692L22.2619 22.5787L22.0143 22.4073L20.8905 19.7977L20.9476 19.512L23.9381 18.2168H26.7762L27.0429 18.4454Z" fill="white"/>
<path d="M12.9271 39.6147C12.5865 40.0763 9.09512 44.8086 7.392 47.117" stroke="url(#paint0_linear_1564_1711)" stroke-width="6.85665" stroke-linecap="round"/>
<path d="M12.9271 39.6147C12.5865 40.0763 9.09512 44.8086 7.392 47.117" stroke="#606060" stroke-width="6.85665" stroke-linecap="round"/>
<g filter="url(#filter0_n_1564_1711)">
<circle cx="24.9017" cy="23.6696" r="18.2003" transform="rotate(10.8418 24.9017 23.6696)" stroke="url(#paint1_linear_1564_1711)" stroke-width="4.05166"/>
<circle cx="24.9017" cy="23.6696" r="18.2003" transform="rotate(10.8418 24.9017 23.6696)" stroke="#606060" stroke-width="4.05166"/>
</g>
<defs>
<filter id="filter0_n_1564_1711" x="4.67175" y="3.43945" width="40.4598" height="40.4609" filterUnits="userSpaceOnUse" color-interpolation-filters="sRGB">
<feFlood flood-opacity="0" result="BackgroundImageFix"/>
<feBlend mode="normal" in="SourceGraphic" in2="BackgroundImageFix" result="shape"/>
<feTurbulence type="fractalNoise" baseFrequency="6.4171237945556641 6.4171237945556641" stitchTiles="stitch" numOctaves="3" result="noise" seed="7802" />
<feColorMatrix in="noise" type="luminanceToAlpha" result="alphaNoise" />
<feComponentTransfer in="alphaNoise" result="coloredNoise1">
<feFuncA type="discrete" tableValues="1 1 1 1 1 1 1 1 1 1 1 1 1 1 1 1 1 1 1 1 1 1 1 1 1 1 1 1 1 1 1 1 1 1 1 1 1 1 1 1 1 1 1 1 1 1 1 1 1 1 1 0 0 0 0 0 0 0 0 0 0 0 0 0 0 0 0 0 0 0 0 0 0 0 0 0 0 0 0 0 0 0 0 0 0 0 0 0 0 0 0 0 0 0 0 0 0 0 0 0 "/>
</feComponentTransfer>
<feComposite operator="in" in2="shape" in="coloredNoise1" result="noise1Clipped" />
<feFlood flood-color="rgba(255, 255, 255, 0.1)" result="color1Flood" />
<feComposite operator="in" in2="noise1Clipped" in="color1Flood" result="color1" />
<feMerge result="effect1_noise_1564_1711">
<feMergeNode in="shape" />
<feMergeNode in="color1" />
</feMerge>
</filter>
<linearGradient id="paint0_linear_1564_1711" x1="11.9022" y1="39.1872" x2="8.41698" y2="47.5444" gradientUnits="userSpaceOnUse">
<stop stop-color="#2079C7"/>
<stop offset="1" stop-color="#3166E3"/>
</linearGradient>
<linearGradient id="paint1_linear_1564_1711" x1="-14.3915" y1="35.4521" x2="75.7882" y2="-0.730186" gradientUnits="userSpaceOnUse">
<stop stop-color="#096CC5"/>
<stop offset="1" stop-color="#83C0F7"/>
</linearGradient>
</defs>
</svg>
