<svg width="49" height="54" viewBox="0 0 49 54" fill="none" xmlns="http://www.w3.org/2000/svg">
<circle cx="25.4434" cy="23.6094" r="17.8106" fill="#6A88D0"/>
<path d="M12.9269 39.6127C12.5863 40.0744 9.09488 44.8066 7.39176 47.115" stroke="url(#paint0_linear_1565_1732)" stroke-width="6.85665" stroke-linecap="round"/>
<path d="M12.9269 39.6127C12.5863 40.0744 9.09488 44.8066 7.39176 47.115" stroke="#606060" stroke-width="6.85665" stroke-linecap="round"/>
<g filter="url(#filter0_n_1565_1732)">
<circle cx="24.9015" cy="23.6696" r="18.2003" transform="rotate(10.8418 24.9015 23.6696)" stroke="url(#paint1_linear_1565_1732)" stroke-width="4.05166"/>
<circle cx="24.9015" cy="23.6696" r="18.2003" transform="rotate(10.8418 24.9015 23.6696)" stroke="#606060" stroke-width="4.05166"/>
</g>
<path d="M20 26.5118L20.1338 26.1493L22.8096 25.1953L23.1155 25.2716C23.4595 26.2447 24.2622 26.7026 25.2752 26.6263C26.0016 26.5881 26.5941 26.1493 26.5941 25.6914C26.5749 24.661 25.1415 24.7564 23.7462 24.7564L23.5359 24.5656V22.4287L23.7653 22.2379C25.1415 22.2379 26.1545 22.1234 26.3265 21.303C26.4794 20.5016 25.3517 20.12 24.5489 20.4062C24.1667 20.5588 23.9947 20.7687 23.8226 21.1694L23.5168 21.2457L20.8219 20.3299L20.7072 19.9292C22.026 15.9987 28.5054 15.9796 29.5184 20.1391C29.7669 21.2076 29.5948 22.3905 28.9259 23.2873C30.4358 24.642 30.302 27.275 28.8494 28.5724C26.078 31.1292 21.2424 30.137 20 26.5118Z" fill="white"/>
<defs>
<filter id="filter0_n_1565_1732" x="4.67151" y="3.43945" width="40.4598" height="40.4609" filterUnits="userSpaceOnUse" color-interpolation-filters="sRGB">
<feFlood flood-opacity="0" result="BackgroundImageFix"/>
<feBlend mode="normal" in="SourceGraphic" in2="BackgroundImageFix" result="shape"/>
<feTurbulence type="fractalNoise" baseFrequency="6.4171237945556641 6.4171237945556641" stitchTiles="stitch" numOctaves="3" result="noise" seed="7802" />
<feColorMatrix in="noise" type="luminanceToAlpha" result="alphaNoise" />
<feComponentTransfer in="alphaNoise" result="coloredNoise1">
<feFuncA type="discrete" tableValues="1 1 1 1 1 1 1 1 1 1 1 1 1 1 1 1 1 1 1 1 1 1 1 1 1 1 1 1 1 1 1 1 1 1 1 1 1 1 1 1 1 1 1 1 1 1 1 1 1 1 1 0 0 0 0 0 0 0 0 0 0 0 0 0 0 0 0 0 0 0 0 0 0 0 0 0 0 0 0 0 0 0 0 0 0 0 0 0 0 0 0 0 0 0 0 0 0 0 0 0 "/>
</feComponentTransfer>
<feComposite operator="in" in2="shape" in="coloredNoise1" result="noise1Clipped" />
<feFlood flood-color="rgba(255, 255, 255, 0.1)" result="color1Flood" />
<feComposite operator="in" in2="noise1Clipped" in="color1Flood" result="color1" />
<feMerge result="effect1_noise_1565_1732">
<feMergeNode in="shape" />
<feMergeNode in="color1" />
</feMerge>
</filter>
<linearGradient id="paint0_linear_1565_1732" x1="11.9019" y1="39.1853" x2="8.41673" y2="47.5425" gradientUnits="userSpaceOnUse">
<stop stop-color="#2079C7"/>
<stop offset="1" stop-color="#3166E3"/>
</linearGradient>
<linearGradient id="paint1_linear_1565_1732" x1="-14.3917" y1="35.4521" x2="75.7879" y2="-0.730186" gradientUnits="userSpaceOnUse">
<stop stop-color="#096CC5"/>
<stop offset="1" stop-color="#83C0F7"/>
</linearGradient>
</defs>
</svg>
